<?xml version="1.0" encoding="utf-8"?>
<!-- Generator: Adobe Illustrator 16.0.0, SVG Export Plug-In . SVG Version: 6.00 Build 0)  -->
<!DOCTYPE svg PUBLIC "-//W3C//DTD SVG 1.1//EN" "http://www.w3.org/Graphics/SVG/1.1/DTD/svg11.dtd">
<svg version="1.1" id="Layer_1" xmlns="http://www.w3.org/2000/svg" xmlns:xlink="http://www.w3.org/1999/xlink" x="0px" y="0px"
	 width="1024px" height="1024px" viewBox="0 0 1024 1024" enable-background="new 0 0 1024 1024" xml:space="preserve">
<g>
	<path d="M948.771,514.841c0.002,209.668-123.811,388.76-298.432,459.913c-52.049,21.22-108.531,32.872-167.599,32.872
		c-257.326,0.005-465.969-220.643-465.974-492.771C16.763,242.649,225.399,22.003,482.726,22
		c59.143-0.001,115.688,11.644,167.738,32.938c134.977,55.046,239.585,174.64,280.066,323.023h-25.255
		c-51.846-139.627-180.58-238.819-330.854-238.817c-195.869,0.003-355.26,168.495-355.257,375.636
		c0.003,207.209,159.399,375.696,355.268,375.693c181.281-0.002,331.198-144.378,352.523-330.077L668.297,560.4
		c-16.349,37.608-52.197,63.727-93.869,63.728c-57.105,0.001-103.338-48.967-103.339-109.353
		c-0.001-60.317,46.23-109.287,103.335-109.288c41.672,0,77.522,26.117,93.871,63.73l278.512-0.004
		C948.066,484.2,948.771,499.483,948.771,514.841z"/>
	<path fill="#FFFFFF" d="M1015.91,514.767c0.004,230.143-158.189,421.854-365.57,459.987c-24.695,4.53-50.018,6.902-75.906,6.902
		c-243.437,0.004-441.485-209.36-441.489-466.876C132.94,257.336,330.982,47.968,574.419,47.964c25.957,0,51.35,2.372,76.045,6.974
		c164.445,30.267,297.88,157.057,346.084,323.021l-91.272,0.001c-51.846-139.627-180.58-238.819-330.854-238.817
		c-195.869,0.003-355.26,168.495-355.257,375.636c0.003,207.209,159.399,375.696,355.268,375.693
		c181.281-0.002,331.198-144.378,352.523-330.077L668.297,560.4c-16.349,37.608-52.197,63.727-93.869,63.728
		c-57.105,0.001-103.338-48.967-103.339-109.353c-0.001-60.317,46.23-109.287,103.335-109.288c41.672,0,77.522,26.117,93.871,63.73
		l345.583-0.005C1015.207,484.199,1015.91,499.409,1015.91,514.767z"/>
</g>
</svg>
